<?xml version="1.0" encoding="UTF-8"?>
<svg id="Layer_1" data-name="Layer 1" xmlns="http://www.w3.org/2000/svg" width="1920" height="1080" xmlns:xlink="http://www.w3.org/1999/xlink" viewBox="0 0 1920 1080">
  <defs>
    <clipPath id="clippath">
      <rect x="414" y="80.01" width="638.3" height="529.1" rx="2.6" ry="2.6" fill="none"/>
    </clipPath>
    <clipPath id="clippath-1">
      <rect x="414" y="613.01" width="638.3" height="302.9" rx="2.6" ry="2.6" fill="none"/>
    </clipPath>
    <clipPath id="clippath-2">
      <rect x="1056.2" y="80.01" width="232.7" height="661.7" rx="2.6" ry="2.6" fill="none"/>
    </clipPath>
    <clipPath id="clippath-3">
      <rect x="1292.8" y="80.01" width="213.2" height="661.7" rx="2.6" ry="2.6" fill="none"/>
    </clipPath>
    <clipPath id="clippath-4">
      <rect x="1056.2" y="745.61" width="449.8" height="170.3" rx="2.6" ry="2.6" fill="none"/>
    </clipPath>
    <clipPath id="clippath-5">
      <rect x="427" y="104.71" width="494" height="487.5" rx="2.6" ry="2.6" fill="none"/>
    </clipPath>
    <clipPath id="clippath-6">
      <rect x="427" y="104.71" width="494" height="487.5" rx="2.6" ry="2.6" fill="none"/>
    </clipPath>
    <clipPath id="clippath-7">
      <rect x="924.9" y="104.71" width="114.4" height="487.5" rx="2.6" ry="2.6" fill="none"/>
    </clipPath>
    <clipPath id="clippath-8">
      <rect x="924.9" y="104.71" width="114.4" height="487.5" rx="2.6" ry="2.6" fill="none"/>
    </clipPath>
    <clipPath id="clippath-9">
      <rect x="427" y="637.71" width="530.4" height="261.3" rx="2.6" ry="2.6" fill="none"/>
    </clipPath>
    <clipPath id="clippath-10">
      <rect x="427" y="637.71" width="530.4" height="261.3" rx="2.6" ry="2.6" fill="none"/>
    </clipPath>
    <clipPath id="clippath-11">
      <rect x="961.3" y="637.71" width="78" height="261.3" rx="2.6" ry="2.6" fill="none"/>
    </clipPath>
    <clipPath id="clippath-12">
      <rect x="961.3" y="637.71" width="78" height="261.3" rx="2.6" ry="2.6" fill="none"/>
    </clipPath>
    <clipPath id="clippath-13">
      <rect x="1069.2" y="104.71" width="206.7" height="516.1" rx="2.6" ry="2.6" fill="none"/>
    </clipPath>
    <clipPath id="clippath-14">
      <rect x="1069.2" y="104.71" width="206.7" height="516.1" rx="2.6" ry="2.6" fill="none"/>
    </clipPath>
    <clipPath id="clippath-15">
      <rect x="1069.2" y="624.71" width="206.7" height="100.1" rx="2.6" ry="2.6" fill="none"/>
    </clipPath>
    <clipPath id="clippath-16">
      <rect x="1069.2" y="624.71" width="206.7" height="100.1" rx="2.6" ry="2.6" fill="none"/>
    </clipPath>
    <clipPath id="clippath-17">
      <rect x="1305.8" y="104.71" width="187.2" height="507" rx="2.6" ry="2.6" fill="none"/>
    </clipPath>
    <clipPath id="clippath-18">
      <rect x="1305.8" y="104.71" width="187.2" height="507" rx="2.6" ry="2.6" fill="none"/>
    </clipPath>
    <clipPath id="clippath-19">
      <rect x="1305.8" y="615.61" width="187.2" height="109.2" rx="2.6" ry="2.6" fill="none"/>
    </clipPath>
    <clipPath id="clippath-20">
      <rect x="1305.8" y="615.61" width="187.2" height="109.2" rx="2.6" ry="2.6" fill="none"/>
    </clipPath>
    <clipPath id="clippath-21">
      <rect x="1069.2" y="770.31" width="209.3" height="128.7" rx="2.6" ry="2.6" fill="none"/>
    </clipPath>
    <clipPath id="clippath-22">
      <rect x="1069.2" y="770.31" width="209.3" height="128.7" rx="2.6" ry="2.6" fill="none"/>
    </clipPath>
    <clipPath id="clippath-23">
      <rect x="1282.4" y="770.31" width="210.6" height="128.7" rx="2.6" ry="2.6" fill="none"/>
    </clipPath>
    <clipPath id="clippath-24">
      <rect x="1282.4" y="770.31" width="210.6" height="128.7" rx="2.6" ry="2.6" fill="none"/>
    </clipPath>
  </defs>
  <rect id="treemap_root" x="414" y="76.11" width="1092" height="839.8" fill="none"/>
  <g>
    <rect id="leaf-0" x="414" y="76.11" width="638.3" height="529.1" rx="2" ry="2" fill="#f0f5f7" stroke="#fff" stroke-width=".2"/>
    <g clip-path="url(#clippath)">
      <text transform="translate(420.5 95.61)" font-family="Poppins-Regular, Poppins" font-size="15.6" isolation="isolate"><tspan x="0" y="0">SUNHAVEN</tspan></text>
    </g>
  </g>
  <g>
    <rect id="leaf-1" x="414" y="609.11" width="638.3" height="302.9" rx="2" ry="2" fill="#fcf0f6" stroke="#fff" stroke-width=".2"/>
    <g clip-path="url(#clippath-1)">
      <text transform="translate(420.5 628.61)" font-family="Poppins-Regular, Poppins" font-size="15.6" isolation="isolate"><tspan x="0" y="0">STONEFELL</tspan></text>
    </g>
  </g>
  <g>
    <rect id="leaf-2" x="1056.2" y="76.11" width="232.7" height="661.7" rx="2" ry="2" fill="#f0fcfa" stroke="#fff" stroke-width=".2"/>
    <g clip-path="url(#clippath-2)">
      <text transform="translate(1062.7 95.61)" font-family="Poppins-Regular, Poppins" font-size="15.6" isolation="isolate"><tspan x="0" y="0">RAVENLAND</tspan></text>
    </g>
  </g>
  <g>
    <rect id="leaf-3" x="1292.8" y="76.11" width="213.2" height="661.7" rx="2" ry="2" fill="#fcfaf0" stroke="#fff" stroke-width=".2"/>
    <g clip-path="url(#clippath-3)">
      <text transform="translate(1299.3 95.61)" font-family="Poppins-Regular, Poppins" font-size="15.6" isolation="isolate"><tspan x="0" y="0">HIGHMOOR</tspan></text>
    </g>
  </g>
  <g>
    <rect id="leaf-4" x="1056.2" y="741.71" width="449.8" height="170.3" rx="2" ry="2" fill="#f7f0ed" stroke="#fff" stroke-width=".2"/>
    <g clip-path="url(#clippath-4)">
      <text transform="translate(1062.7 761.21)" font-family="Poppins-Regular, Poppins" font-size="15.6" isolation="isolate"><tspan x="0" y="0">FROSTVALE</tspan></text>
    </g>
  </g>
  <g>
    <rect id="leaf-5" x="427" y="104.71" width="494" height="487.5" rx="2" ry="2" fill="#07b" stroke="#fff" stroke-width=".2"/>
    <g>
      <g clip-path="url(#clippath-5)">
        <rect x="427" y="104.71" width="82.38" height="22.69" fill="#fff" isolation="isolate" opacity=".7"/>
      </g>
      <g clip-path="url(#clippath-6)">
        <text transform="translate(433.5 120.31)" font-family="Poppins-Regular, Poppins" font-size="14.3" isolation="isolate"><tspan x="0" y="0">Eastwood</tspan></text>
      </g>
    </g>
  </g>
  <g>
    <rect id="leaf-6" x="924.9" y="104.71" width="114.4" height="487.5" rx="2" ry="2" fill="#07b" stroke="#fff" stroke-width=".2"/>
    <g>
      <g clip-path="url(#clippath-7)">
        <rect x="924.9" y="104.71" width="90.07" height="22.69" fill="#fff" isolation="isolate" opacity=".7"/>
      </g>
      <g clip-path="url(#clippath-8)">
        <text transform="translate(931.4 120.31)" font-family="Poppins-Regular, Poppins" font-size="14.3" isolation="isolate"><tspan x="0" y="0">Westbrook</tspan></text>
      </g>
    </g>
  </g>
  <g>
    <rect id="leaf-7" x="427" y="637.71" width="530.4" height="261.3" rx="2" ry="2" fill="#ed3584" stroke="#fff" stroke-width=".2"/>
    <g>
      <g clip-path="url(#clippath-9)">
        <rect x="427" y="637.71" width="83.82" height="22.69" fill="#fff" isolation="isolate" opacity=".7"/>
      </g>
      <g clip-path="url(#clippath-10)">
        <text transform="translate(433.5 653.31)" font-family="Poppins-Regular, Poppins" font-size="14.3" isolation="isolate"><tspan x="0" y="0">Thornfield</tspan></text>
      </g>
    </g>
  </g>
  <g>
    <rect id="leaf-8" x="961.3" y="637.71" width="78" height="261.3" rx="2" ry="2" fill="#ed3584" stroke="#fff" stroke-width=".2"/>
    <g>
      <g clip-path="url(#clippath-11)">
        <rect x="961.3" y="637.71" width="85.18" height="22.69" fill="#fff" isolation="isolate" opacity=".7"/>
      </g>
      <g clip-path="url(#clippath-12)">
        <text transform="translate(967.8 653.31)" font-family="Poppins-Regular, Poppins" font-size="14.3" isolation="isolate"><tspan x="0" y="0">Darkwood</tspan></text>
      </g>
    </g>
  </g>
  <g>
    <rect id="leaf-9" x="1069.2" y="104.71" width="206.7" height="516.1" rx="2" ry="2" fill="#009377" stroke="#fff" stroke-width=".2"/>
    <g>
      <g clip-path="url(#clippath-13)">
        <rect x="1069.2" y="104.71" width="88.19" height="22.69" fill="#fff" isolation="isolate" opacity=".7"/>
      </g>
      <g clip-path="url(#clippath-14)">
        <text transform="translate(1075.7 120.31)" font-family="Poppins-Regular, Poppins" font-size="14.3" isolation="isolate"><tspan x="0" y="0">Westwood</tspan></text>
      </g>
    </g>
  </g>
  <g>
    <rect id="leaf-10" x="1069.2" y="624.71" width="206.7" height="100.1" rx="2" ry="2" fill="#009377" stroke="#fff" stroke-width=".2"/>
    <g>
      <g clip-path="url(#clippath-15)">
        <rect x="1069.2" y="624.71" width="70.38" height="22.69" fill="#fff" isolation="isolate" opacity=".7"/>
      </g>
      <g clip-path="url(#clippath-16)">
        <text transform="translate(1075.7 640.31)" font-family="Poppins-Regular, Poppins" font-size="14.3" isolation="isolate"><tspan x="0" y="0">Silverhill</tspan></text>
      </g>
    </g>
  </g>
  <g>
    <rect id="leaf-11" x="1305.8" y="104.71" width="187.2" height="507" rx="2" ry="2" fill="#ed8" stroke="#fff" stroke-width=".2"/>
    <g>
      <g clip-path="url(#clippath-17)">
        <rect x="1305.8" y="104.71" width="90.7" height="22.69" fill="#fff" isolation="isolate" opacity=".7"/>
      </g>
      <g clip-path="url(#clippath-18)">
        <text transform="translate(1312.3 120.31)" font-family="Poppins-Regular, Poppins" font-size="14.3" isolation="isolate"><tspan x="0" y="0">Freshwater</tspan></text>
      </g>
    </g>
  </g>
  <g>
    <rect id="leaf-12" x="1305.8" y="615.61" width="187.2" height="109.2" rx="2" ry="2" fill="#ed8" stroke="#fff" stroke-width=".2"/>
    <g>
      <g clip-path="url(#clippath-19)">
        <rect x="1305.8" y="615.61" width="90.35" height="22.69" fill="#fff" isolation="isolate" opacity=".7"/>
      </g>
      <g clip-path="url(#clippath-20)">
        <text transform="translate(1312.3 631.21)" font-family="Poppins-Regular, Poppins" font-size="14.3" isolation="isolate"><tspan x="0" y="0">Silverwood</tspan></text>
      </g>
    </g>
  </g>
  <g>
    <rect id="leaf-13" x="1069.2" y="770.31" width="209.3" height="128.7" rx="2" ry="2" fill="#d86830" stroke="#fff" stroke-width=".2"/>
    <g>
      <g clip-path="url(#clippath-21)">
        <rect x="1069.2" y="770.31" width="93.98" height="22.69" fill="#fff" isolation="isolate" opacity=".7"/>
      </g>
      <g clip-path="url(#clippath-22)">
        <text transform="translate(1075.7 785.92)" font-family="Poppins-Regular, Poppins" font-size="14.3" isolation="isolate"><tspan x="0" y="0">Greenridge</tspan></text>
      </g>
    </g>
  </g>
  <g>
    <rect id="leaf-14" x="1282.4" y="770.31" width="210.6" height="128.7" rx="2" ry="2" fill="#d86830" stroke="#fff" stroke-width=".2"/>
    <g>
      <g clip-path="url(#clippath-23)">
        <rect x="1282.4" y="770.31" width="91.61" height="22.69" fill="#fff" isolation="isolate" opacity=".7"/>
      </g>
      <g clip-path="url(#clippath-24)">
        <text transform="translate(1288.9 785.92)" font-family="Poppins-Regular, Poppins" font-size="14.3" isolation="isolate"><tspan x="0" y="0">Northwood</tspan></text>
      </g>
    </g>
  </g>
</svg>