<?xml version="1.0" encoding="UTF-8"?>
<svg id="Layer_1" data-name="Layer 1" xmlns="http://www.w3.org/2000/svg" width="1920" height="1080" viewBox="0 0 1920 1080">
  <g id="data-container">
    <g id="reference-axis-xAxis">
      <g id="axisTicks-xAxis">
        <g id="axis-label-container">
          <text transform="translate(402.48 898.86) rotate(-35)" fill="#333" font-family="Poppins-Regular, Poppins" font-size="11.7"><tspan x="0" y="0">#106</tspan></text>
        </g>
        <g id="axis-label-container-2" data-name="axis-label-container">
          <text transform="translate(459.81 895.12) rotate(-35)" fill="#333" font-family="Poppins-Regular, Poppins" font-size="11.7"><tspan x="0" y="0">#92</tspan></text>
        </g>
        <g id="axis-label-container-3" data-name="axis-label-container">
          <text transform="translate(511.81 895.12) rotate(-35)" fill="#333" font-family="Poppins-Regular, Poppins" font-size="11.7"><tspan x="0" y="0">#95</tspan></text>
        </g>
        <g id="axis-label-container-4" data-name="axis-label-container">
          <text transform="translate(558.48 898.85) rotate(-35)" fill="#333" font-family="Poppins-Regular, Poppins" font-size="11.7"><tspan x="0" y="0">#166</tspan></text>
        </g>
        <g id="axis-label-container-5" data-name="axis-label-container">
          <text transform="translate(615.81 895.12) rotate(-35)" fill="#333" font-family="Poppins-Regular, Poppins" font-size="11.7"><tspan x="0" y="0">#97</tspan></text>
        </g>
        <g id="axis-label-container-6" data-name="axis-label-container">
          <text transform="translate(662.48 898.85) rotate(-35)" fill="#333" font-family="Poppins-Regular, Poppins" font-size="11.7"><tspan x="0" y="0">#182</tspan></text>
        </g>
        <g id="axis-label-container-7" data-name="axis-label-container">
          <text transform="translate(714.48 898.85) rotate(-35)" fill="#333" font-family="Poppins-Regular, Poppins" font-size="11.7"><tspan x="0" y="0">#290</tspan></text>
        </g>
        <g id="axis-label-container-8" data-name="axis-label-container">
          <text transform="translate(766.48 898.85) rotate(-35)" fill="#333" font-family="Poppins-Regular, Poppins" font-size="11.7"><tspan x="0" y="0">#110</tspan></text>
        </g>
        <g id="axis-label-container-9" data-name="axis-label-container">
          <text transform="translate(818.48 898.85) rotate(-35)" fill="#333" font-family="Poppins-Regular, Poppins" font-size="11.7"><tspan x="0" y="0">#142</tspan></text>
        </g>
        <g id="axis-label-container-10" data-name="axis-label-container">
          <text transform="translate(870.48 898.85) rotate(-35)" fill="#333" font-family="Poppins-Regular, Poppins" font-size="11.7"><tspan x="0" y="0">#311</tspan></text>
        </g>
        <g id="axis-label-container-11" data-name="axis-label-container">
          <text transform="translate(927.81 895.12) rotate(-35)" fill="#333" font-family="Poppins-Regular, Poppins" font-size="11.7"><tspan x="0" y="0">#98</tspan></text>
        </g>
        <g id="axis-label-container-12" data-name="axis-label-container">
          <text transform="translate(974.48 898.85) rotate(-35)" fill="#333" font-family="Poppins-Regular, Poppins" font-size="11.7"><tspan x="0" y="0">#170</tspan></text>
        </g>
        <g id="axis-label-container-13" data-name="axis-label-container">
          <text transform="translate(1026.48 898.85) rotate(-35)" fill="#333" font-family="Poppins-Regular, Poppins" font-size="11.7"><tspan x="0" y="0">#102</tspan></text>
        </g>
        <g id="axis-label-container-14" data-name="axis-label-container">
          <text transform="translate(1078.48 898.85) rotate(-35)" fill="#333" font-family="Poppins-Regular, Poppins" font-size="11.7"><tspan x="0" y="0">#172</tspan></text>
        </g>
        <g id="axis-label-container-15" data-name="axis-label-container">
          <text transform="translate(1130.48 898.85) rotate(-35)" fill="#333" font-family="Poppins-Regular, Poppins" font-size="11.7"><tspan x="0" y="0">#313</tspan></text>
        </g>
        <g id="axis-label-container-16" data-name="axis-label-container">
          <text transform="translate(1182.48 898.85) rotate(-35)" fill="#333" font-family="Poppins-Regular, Poppins" font-size="11.7"><tspan x="0" y="0">#178</tspan></text>
        </g>
        <g id="axis-label-container-17" data-name="axis-label-container">
          <text transform="translate(1234.48 898.85) rotate(-35)" fill="#333" font-family="Poppins-Regular, Poppins" font-size="11.7"><tspan x="0" y="0">#171</tspan></text>
        </g>
        <g id="axis-label-container-18" data-name="axis-label-container">
          <text transform="translate(1286.48 898.85) rotate(-35)" fill="#333" font-family="Poppins-Regular, Poppins" font-size="11.7"><tspan x="0" y="0">#100</tspan></text>
        </g>
        <g id="axis-label-container-19" data-name="axis-label-container">
          <text transform="translate(1338.48 898.85) rotate(-35)" fill="#333" font-family="Poppins-Regular, Poppins" font-size="11.7"><tspan x="0" y="0">#121</tspan></text>
        </g>
        <g id="axis-label-container-20" data-name="axis-label-container">
          <text transform="translate(1390.48 898.85) rotate(-35)" fill="#333" font-family="Poppins-Regular, Poppins" font-size="11.7"><tspan x="0" y="0">#139</tspan></text>
        </g>
      </g>
      <text transform="translate(1425.29 900.05)" font-family="Poppins-Bold, Poppins" font-size="18.2" font-weight="700"><tspan x="0" y="0">FOOD ITEM</tspan></text>
      <path id="axisLine-xAxis" d="M385.29,875.35v-7.8h1040v7.8" fill="none" stroke="#333"/>
    </g>
    <g id="reference-axis-yAxis">
      <path id="axisLine-yAxis" d="M377.49,867.55h7.8V87.55h-7.8" fill="none" stroke="#333"/>
      <g id="axisTicks-yAxis">
        <g id="axis-label-container-21" data-name="axis-label-container">
          <line x1="385.29" y1="867.55" x2="377.49" y2="867.55" fill="none" stroke="#333"/>
          <text transform="translate(366.36 871.71)" fill="#333" font-family="Poppins-Regular, Poppins" font-size="13"><tspan x="0" y="0">2</tspan></text>
        </g>
        <g id="axis-label-container-22" data-name="axis-label-container">
          <line x1="385.29" y1="811.84" x2="377.49" y2="811.84" fill="none" stroke="#333"/>
          <text transform="translate(366.36 816)" fill="#333" font-family="Poppins-Regular, Poppins" font-size="13"><tspan x="0" y="0">4</tspan></text>
        </g>
        <g id="axis-label-container-23" data-name="axis-label-container">
          <line x1="385.29" y1="756.12" x2="377.49" y2="756.12" fill="none" stroke="#333"/>
          <text transform="translate(366.36 760.28)" fill="#333" font-family="Poppins-Regular, Poppins" font-size="13"><tspan x="0" y="0">6</tspan></text>
        </g>
        <g id="axis-label-container-24" data-name="axis-label-container">
          <line x1="385.29" y1="700.41" x2="377.49" y2="700.41" fill="none" stroke="#333"/>
          <text transform="translate(366.36 704.57)" fill="#333" font-family="Poppins-Regular, Poppins" font-size="13"><tspan x="0" y="0">8</tspan></text>
        </g>
        <g id="axis-label-container-25" data-name="axis-label-container">
          <line x1="385.29" y1="644.69" x2="377.49" y2="644.69" fill="none" stroke="#333"/>
          <text transform="translate(359.14 648.85)" fill="#333" font-family="Poppins-Regular, Poppins" font-size="13"><tspan x="0" y="0">10</tspan></text>
        </g>
        <g id="axis-label-container-26" data-name="axis-label-container">
          <line x1="385.29" y1="588.98" x2="377.49" y2="588.98" fill="none" stroke="#333"/>
          <text transform="translate(359.14 593.14)" fill="#333" font-family="Poppins-Regular, Poppins" font-size="13"><tspan x="0" y="0">12</tspan></text>
        </g>
        <g id="axis-label-container-27" data-name="axis-label-container">
          <line x1="385.29" y1="533.27" x2="377.49" y2="533.27" fill="none" stroke="#333"/>
          <text transform="translate(359.14 537.42)" fill="#333" font-family="Poppins-Regular, Poppins" font-size="13"><tspan x="0" y="0">14</tspan></text>
        </g>
        <g id="axis-label-container-28" data-name="axis-label-container">
          <line x1="385.29" y1="477.55" x2="377.49" y2="477.55" fill="none" stroke="#333"/>
          <text transform="translate(359.14 481.71)" fill="#333" font-family="Poppins-Regular, Poppins" font-size="13"><tspan x="0" y="0">16</tspan></text>
        </g>
        <g id="axis-label-container-29" data-name="axis-label-container">
          <line x1="385.29" y1="421.84" x2="377.49" y2="421.84" fill="none" stroke="#333"/>
          <text transform="translate(359.14 426)" fill="#333" font-family="Poppins-Regular, Poppins" font-size="13"><tspan x="0" y="0">18</tspan></text>
        </g>
        <g id="axis-label-container-30" data-name="axis-label-container">
          <line x1="385.29" y1="366.12" x2="377.49" y2="366.12" fill="none" stroke="#333"/>
          <text transform="translate(359.14 370.28)" fill="#333" font-family="Poppins-Regular, Poppins" font-size="13"><tspan x="0" y="0">20</tspan></text>
        </g>
        <g id="axis-label-container-31" data-name="axis-label-container">
          <line x1="385.29" y1="310.41" x2="377.49" y2="310.41" fill="none" stroke="#333"/>
          <text transform="translate(359.14 314.57)" fill="#333" font-family="Poppins-Regular, Poppins" font-size="13"><tspan x="0" y="0">22</tspan></text>
        </g>
        <g id="axis-label-container-32" data-name="axis-label-container">
          <line x1="385.29" y1="254.69" x2="377.49" y2="254.69" fill="none" stroke="#333"/>
          <text transform="translate(359.14 258.85)" fill="#333" font-family="Poppins-Regular, Poppins" font-size="13"><tspan x="0" y="0">24</tspan></text>
        </g>
        <g id="axis-label-container-33" data-name="axis-label-container">
          <line x1="385.29" y1="198.98" x2="377.49" y2="198.98" fill="none" stroke="#333"/>
          <text transform="translate(359.14 203.14)" fill="#333" font-family="Poppins-Regular, Poppins" font-size="13"><tspan x="0" y="0">26</tspan></text>
        </g>
        <g id="axis-label-container-34" data-name="axis-label-container">
          <line x1="385.29" y1="143.27" x2="377.49" y2="143.27" fill="none" stroke="#333"/>
          <text transform="translate(359.14 147.42)" fill="#333" font-family="Poppins-Regular, Poppins" font-size="13"><tspan x="0" y="0">28</tspan></text>
        </g>
        <g id="axis-label-container-35" data-name="axis-label-container">
          <line x1="385.29" y1="87.55" x2="377.49" y2="87.55" fill="none" stroke="#333"/>
          <text transform="translate(359.14 91.71)" fill="#333" font-family="Poppins-Regular, Poppins" font-size="13"><tspan x="0" y="0">30</tspan></text>
        </g>
      </g>
      <g id="axis-title-yAxis">
        <text transform="translate(339.23 612.37) rotate(-90)" font-family="Poppins-Bold, Poppins" font-size="18.2" font-weight="700" isolation="isolate"><tspan x="0" y="0">NUTRITIONAL VALUE (g/100g)</tspan></text>
      </g>
    </g>
    <g id="reference-grid-yAxis">
      <g id="main-grid-yAxis">
        <path d="M1425.29,867.55H385.29V87.55h1040" fill="none" stroke="#000"/>
        <line x1="385.29" y1="867.55" x2="1425.29" y2="867.55" fill="none" stroke="#000"/>
        <line x1="385.29" y1="811.84" x2="1425.29" y2="811.84" fill="none" stroke="#000"/>
        <line x1="385.29" y1="756.12" x2="1425.29" y2="756.12" fill="none" stroke="#000"/>
        <line x1="385.29" y1="700.41" x2="1425.29" y2="700.41" fill="none" stroke="#000"/>
        <line x1="385.29" y1="644.69" x2="1425.29" y2="644.69" fill="none" stroke="#000"/>
        <line x1="385.29" y1="588.98" x2="1425.29" y2="588.98" fill="none" stroke="#000"/>
        <line x1="385.29" y1="533.27" x2="1425.29" y2="533.27" fill="none" stroke="#000"/>
        <line x1="385.29" y1="477.55" x2="1425.29" y2="477.55" fill="none" stroke="#000"/>
        <line x1="385.29" y1="421.84" x2="1425.29" y2="421.84" fill="none" stroke="#000"/>
        <line x1="385.29" y1="366.12" x2="1425.29" y2="366.12" fill="none" stroke="#000"/>
        <line x1="385.29" y1="310.41" x2="1425.29" y2="310.41" fill="none" stroke="#000"/>
        <line x1="385.29" y1="254.69" x2="1425.29" y2="254.69" fill="none" stroke="#000"/>
        <line x1="385.29" y1="198.98" x2="1425.29" y2="198.98" fill="none" stroke="#000"/>
        <line x1="385.29" y1="143.27" x2="1425.29" y2="143.27" fill="none" stroke="#000"/>
        <line x1="385.29" y1="87.55" x2="1425.29" y2="87.55" fill="none" stroke="#000"/>
      </g>
      <g id="secondary-grid-yAxis">
        <path d="M1425.29,867.55H385.29V87.55h1040" fill="none" stroke="#333"/>
        <line x1="385.29" y1="867.55" x2="1425.29" y2="867.55" fill="none" stroke="#333"/>
        <line x1="385.29" y1="811.84" x2="1425.29" y2="811.84" fill="none" stroke="#333"/>
        <line x1="385.29" y1="756.12" x2="1425.29" y2="756.12" fill="none" stroke="#333"/>
        <line x1="385.29" y1="700.41" x2="1425.29" y2="700.41" fill="none" stroke="#333"/>
        <line x1="385.29" y1="644.69" x2="1425.29" y2="644.69" fill="none" stroke="#333"/>
        <line x1="385.29" y1="588.98" x2="1425.29" y2="588.98" fill="none" stroke="#333"/>
        <line x1="385.29" y1="533.27" x2="1425.29" y2="533.27" fill="none" stroke="#333"/>
        <line x1="385.29" y1="477.55" x2="1425.29" y2="477.55" fill="none" stroke="#333"/>
        <line x1="385.29" y1="421.84" x2="1425.29" y2="421.84" fill="none" stroke="#333"/>
        <line x1="385.29" y1="366.12" x2="1425.29" y2="366.12" fill="none" stroke="#333"/>
        <line x1="385.29" y1="310.41" x2="1425.29" y2="310.41" fill="none" stroke="#333"/>
        <line x1="385.29" y1="254.69" x2="1425.29" y2="254.69" fill="none" stroke="#333"/>
        <line x1="385.29" y1="198.98" x2="1425.29" y2="198.98" fill="none" stroke="#333"/>
        <line x1="385.29" y1="143.27" x2="1425.29" y2="143.27" fill="none" stroke="#333"/>
        <line x1="385.29" y1="87.55" x2="1425.29" y2="87.55" fill="none" stroke="#333"/>
        <g>
          <line x1="385.29" y1="853.62" x2="1425.29" y2="853.62" fill="none" stroke="#999"/>
          <line x1="385.29" y1="839.69" x2="1425.29" y2="839.69" fill="none" stroke="#999"/>
          <line x1="385.29" y1="825.77" x2="1425.29" y2="825.77" fill="none" stroke="#999"/>
          <line x1="385.29" y1="797.91" x2="1425.29" y2="797.91" fill="none" stroke="#999"/>
          <line x1="385.29" y1="783.98" x2="1425.29" y2="783.98" fill="none" stroke="#999"/>
          <line x1="385.29" y1="770.05" x2="1425.29" y2="770.05" fill="none" stroke="#999"/>
          <line x1="385.29" y1="742.19" x2="1425.29" y2="742.19" fill="none" stroke="#999"/>
          <line x1="385.29" y1="728.27" x2="1425.29" y2="728.27" fill="none" stroke="#999"/>
          <line x1="385.29" y1="714.34" x2="1425.29" y2="714.34" fill="none" stroke="#999"/>
          <line x1="385.29" y1="686.48" x2="1425.29" y2="686.48" fill="none" stroke="#999"/>
          <line x1="385.29" y1="672.55" x2="1425.29" y2="672.55" fill="none" stroke="#999"/>
          <line x1="385.29" y1="658.62" x2="1425.29" y2="658.62" fill="none" stroke="#999"/>
          <line x1="385.29" y1="630.77" x2="1425.29" y2="630.77" fill="none" stroke="#999"/>
          <line x1="385.29" y1="616.84" x2="1425.29" y2="616.84" fill="none" stroke="#999"/>
          <line x1="385.29" y1="602.91" x2="1425.29" y2="602.91" fill="none" stroke="#999"/>
          <line x1="385.29" y1="575.05" x2="1425.29" y2="575.05" fill="none" stroke="#999"/>
          <line x1="385.29" y1="561.12" x2="1425.29" y2="561.12" fill="none" stroke="#999"/>
          <line x1="385.29" y1="547.19" x2="1425.29" y2="547.19" fill="none" stroke="#999"/>
          <line x1="385.29" y1="519.34" x2="1425.29" y2="519.34" fill="none" stroke="#999"/>
          <line x1="385.29" y1="505.41" x2="1425.29" y2="505.41" fill="none" stroke="#999"/>
          <line x1="385.29" y1="491.48" x2="1425.29" y2="491.48" fill="none" stroke="#999"/>
          <line x1="385.29" y1="463.62" x2="1425.29" y2="463.62" fill="none" stroke="#999"/>
          <line x1="385.29" y1="449.69" x2="1425.29" y2="449.69" fill="none" stroke="#999"/>
          <line x1="385.29" y1="435.77" x2="1425.29" y2="435.77" fill="none" stroke="#999"/>
          <line x1="385.29" y1="407.91" x2="1425.29" y2="407.91" fill="none" stroke="#999"/>
          <line x1="385.29" y1="393.98" x2="1425.29" y2="393.98" fill="none" stroke="#999"/>
          <line x1="385.29" y1="380.05" x2="1425.29" y2="380.05" fill="none" stroke="#999"/>
          <line x1="385.29" y1="352.19" x2="1425.29" y2="352.19" fill="none" stroke="#999"/>
          <line x1="385.29" y1="338.27" x2="1425.29" y2="338.27" fill="none" stroke="#999"/>
          <line x1="385.29" y1="324.34" x2="1425.29" y2="324.34" fill="none" stroke="#999"/>
          <line x1="385.29" y1="296.48" x2="1425.29" y2="296.48" fill="none" stroke="#999"/>
          <line x1="385.29" y1="282.55" x2="1425.29" y2="282.55" fill="none" stroke="#999"/>
          <line x1="385.29" y1="268.62" x2="1425.29" y2="268.62" fill="none" stroke="#999"/>
          <line x1="385.29" y1="240.77" x2="1425.29" y2="240.77" fill="none" stroke="#999"/>
          <line x1="385.29" y1="226.84" x2="1425.29" y2="226.84" fill="none" stroke="#999"/>
          <line x1="385.29" y1="212.91" x2="1425.29" y2="212.91" fill="none" stroke="#999"/>
          <line x1="385.29" y1="185.05" x2="1425.29" y2="185.05" fill="none" stroke="#999"/>
          <line x1="385.29" y1="171.12" x2="1425.29" y2="171.12" fill="none" stroke="#999"/>
          <line x1="385.29" y1="157.19" x2="1425.29" y2="157.19" fill="none" stroke="#999"/>
          <line x1="385.29" y1="129.34" x2="1425.29" y2="129.34" fill="none" stroke="#999"/>
          <line x1="385.29" y1="115.41" x2="1425.29" y2="115.41" fill="none" stroke="#999"/>
          <line x1="385.29" y1="101.48" x2="1425.29" y2="101.48" fill="none" stroke="#999"/>
        </g>
      </g>
    </g>
    <g id="data-groups">
      <g id="_106" data-name="106">
        <path d="M397.59,687.02h10.07v10.07h-10.07v-10.07Z" fill="#d86830" stroke="#fff" stroke-linecap="round" stroke-linejoin="round"/>
        <line x1="402.63" y1="867.55" x2="402.63" y2="692.05" fill="none" stroke="#d86830"/>
        <path d="M411.29,666.26l2.13,6.57h6.91l-5.59,4.06,2.13,6.57-5.59-4.06-5.59,4.06,2.13-6.57-5.59-4.06h6.91l2.13-6.57Z" fill="#d86830" stroke="#fff" stroke-linecap="round" stroke-linejoin="round"/>
        <line x1="411.29" y1="867.55" x2="411.29" y2="675.82" fill="none" stroke="#d86830"/>
        <path d="M419.96,767.93l7.65,13.25h-15.3l7.65-13.25Z" fill="#d86830" stroke="#fff" stroke-linecap="round" stroke-linejoin="round"/>
        <line x1="419.96" y1="867.55" x2="419.96" y2="776.77" fill="none" stroke="#d86830"/>
      </g>
      <g id="_92" data-name="92">
        <path d="M449.59,686.74h10.07v10.07h-10.07v-10.07Z" fill="#d86830" stroke="#fff" stroke-linecap="round" stroke-linejoin="round"/>
        <line x1="454.63" y1="867.55" x2="454.63" y2="691.77" fill="none" stroke="#d86830"/>
        <path d="M463.29,573.9l2.13,6.57h6.91l-5.59,4.06,2.13,6.57-5.59-4.06-5.59,4.06,2.13-6.57-5.59-4.06h6.91l2.13-6.57Z" fill="#d86830" stroke="#fff" stroke-linecap="round" stroke-linejoin="round"/>
        <line x1="463.29" y1="867.55" x2="463.29" y2="583.41" fill="none" stroke="#d86830"/>
        <path d="M471.96,823.86l7.65,13.25h-15.3l7.65-13.25Z" fill="#d86830" stroke="#fff" stroke-linecap="round" stroke-linejoin="round"/>
        <line x1="471.96" y1="867.55" x2="471.96" y2="832.69" fill="none" stroke="#d86830"/>
      </g>
      <g id="_95" data-name="95">
        <path d="M501.59,704.01h10.07v10.07h-10.07v-10.07Z" fill="#d86830" stroke="#fff" stroke-linecap="round" stroke-linejoin="round"/>
        <line x1="506.63" y1="867.55" x2="506.63" y2="709.04" fill="none" stroke="#d86830"/>
        <path d="M515.29,523.76l2.13,6.57h6.91l-5.59,4.06,2.13,6.57-5.59-4.06-5.59,4.06,2.13-6.57-5.59-4.06h6.91l2.13-6.57Z" fill="#d86830" stroke="#fff" stroke-linecap="round" stroke-linejoin="round"/>
        <line x1="515.29" y1="867.55" x2="515.29" y2="533.27" fill="none" stroke="#d86830"/>
        <path d="M523.96,788.24l7.65,13.25h-15.3l7.65-13.25Z" fill="#d86830" stroke="#fff" stroke-linecap="round" stroke-linejoin="round"/>
        <line x1="523.96" y1="867.55" x2="523.96" y2="797.07" fill="none" stroke="#d86830"/>
      </g>
      <g id="_166" data-name="166">
        <path d="M553.59,712.64h10.07v10.07h-10.07v-10.07Z" fill="#d86830" stroke="#fff" stroke-linecap="round" stroke-linejoin="round"/>
        <line x1="558.63" y1="867.55" x2="558.63" y2="717.68" fill="none" stroke="#d86830"/>
        <path d="M567.29,420.69l2.13,6.57h6.91l-5.59,4.06,2.13,6.57-5.59-4.06-5.59,4.06,2.13-6.57-5.59-4.06h6.91l2.13-6.57Z" fill="#d86830" stroke="#fff" stroke-linecap="round" stroke-linejoin="round"/>
        <line x1="567.29" y1="867.55" x2="567.29" y2="430.19" fill="none" stroke="#d86830"/>
        <path d="M575.96,613.57l7.65,13.25h-15.3l7.65-13.25Z" fill="#d86830" stroke="#fff" stroke-linecap="round" stroke-linejoin="round"/>
        <line x1="575.96" y1="867.55" x2="575.96" y2="622.41" fill="none" stroke="#d86830"/>
      </g>
      <g id="_97" data-name="97">
        <path d="M605.59,706.79h10.07v10.07h-10.07v-10.07Z" fill="#d86830" stroke="#fff" stroke-linecap="round" stroke-linejoin="round"/>
        <line x1="610.63" y1="867.55" x2="610.63" y2="711.83" fill="none" stroke="#d86830"/>
        <path d="M619.29,565.55l2.13,6.57h6.91l-5.59,4.06,2.13,6.57-5.59-4.06-5.59,4.06,2.13-6.57-5.59-4.06h6.91l2.13-6.57Z" fill="#d86830" stroke="#fff" stroke-linecap="round" stroke-linejoin="round"/>
        <line x1="619.29" y1="867.55" x2="619.29" y2="575.05" fill="none" stroke="#d86830"/>
        <path d="M627.96,737.67l7.65,13.25h-15.3l7.65-13.25Z" fill="#d86830" stroke="#fff" stroke-linecap="round" stroke-linejoin="round"/>
        <line x1="627.96" y1="867.55" x2="627.96" y2="746.5" fill="none" stroke="#d86830"/>
      </g>
      <g id="_182" data-name="182">
        <path d="M657.59,724.9h10.07v10.07h-10.07v-10.07Z" fill="#d86830" stroke="#fff" stroke-linecap="round" stroke-linejoin="round"/>
        <line x1="662.63" y1="867.55" x2="662.63" y2="729.94" fill="none" stroke="#d86830"/>
        <path d="M671.29,214.55l2.13,6.57h6.91l-5.59,4.06,2.13,6.57-5.59-4.06-5.59,4.06,2.13-6.57-5.59-4.06h6.91l2.13-6.57Z" fill="#d86830" stroke="#fff" stroke-linecap="round" stroke-linejoin="round"/>
        <line x1="671.29" y1="867.55" x2="671.29" y2="224.05" fill="none" stroke="#d86830"/>
        <path d="M679.96,718.89l7.65,13.25h-15.3l7.65-13.25Z" fill="#d86830" stroke="#fff" stroke-linecap="round" stroke-linejoin="round"/>
        <line x1="679.96" y1="867.55" x2="679.96" y2="727.73" fill="none" stroke="#d86830"/>
      </g>
      <g id="_290" data-name="290">
        <path d="M709.59,671.14h10.07v10.07h-10.07v-10.07Z" fill="#07b" stroke="#fff" stroke-linecap="round" stroke-linejoin="round"/>
        <line x1="714.63" y1="867.55" x2="714.63" y2="676.17" fill="none" stroke="#07b"/>
        <path d="M723.29,217.33l2.13,6.57h6.91l-5.59,4.06,2.13,6.57-5.59-4.06-5.59,4.06,2.13-6.57-5.59-4.06h6.91l2.13-6.57Z" fill="#07b" stroke="#fff" stroke-linecap="round" stroke-linejoin="round"/>
        <line x1="723.29" y1="867.55" x2="723.29" y2="226.84" fill="none" stroke="#07b"/>
        <path d="M731.96,746.45l7.65,13.25h-15.3l7.65-13.25Z" fill="#07b" stroke="#fff" stroke-linecap="round" stroke-linejoin="round"/>
        <line x1="731.96" y1="867.55" x2="731.96" y2="755.29" fill="none" stroke="#07b"/>
      </g>
      <g id="_110" data-name="110">
        <path d="M761.59,719.61h10.07v10.07h-10.07v-10.07Z" fill="#d86830" stroke="#fff" stroke-linecap="round" stroke-linejoin="round"/>
        <line x1="766.63" y1="867.55" x2="766.63" y2="724.64" fill="none" stroke="#d86830"/>
        <path d="M775.29,551.62l2.13,6.57h6.91l-5.59,4.06,2.13,6.57-5.59-4.06-5.59,4.06,2.13-6.57-5.59-4.06h6.91l2.13-6.57Z" fill="#d86830" stroke="#fff" stroke-linecap="round" stroke-linejoin="round"/>
        <line x1="775.29" y1="867.55" x2="775.29" y2="561.12" fill="none" stroke="#d86830"/>
        <path d="M783.96,712.11l7.65,13.25h-15.3l7.65-13.25Z" fill="#d86830" stroke="#fff" stroke-linecap="round" stroke-linejoin="round"/>
        <line x1="783.96" y1="867.55" x2="783.96" y2="720.94" fill="none" stroke="#d86830"/>
      </g>
      <g id="_142" data-name="142">
        <path d="M813.59,731.87h10.07v10.07h-10.07v-10.07Z" fill="#d86830" stroke="#fff" stroke-linecap="round" stroke-linejoin="round"/>
        <line x1="818.63" y1="867.55" x2="818.63" y2="736.9" fill="none" stroke="#d86830"/>
        <path d="M827.29,164.4l2.13,6.57h6.91l-5.59,4.06,2.13,6.57-5.59-4.06-5.59,4.06,2.13-6.57-5.59-4.06h6.91l2.13-6.57Z" fill="#d86830" stroke="#fff" stroke-linecap="round" stroke-linejoin="round"/>
        <line x1="827.29" y1="867.55" x2="827.29" y2="173.91" fill="none" stroke="#d86830"/>
        <path d="M835.96,811.36l7.65,13.25h-15.3l7.65-13.25Z" fill="#d86830" stroke="#fff" stroke-linecap="round" stroke-linejoin="round"/>
        <line x1="835.96" y1="867.55" x2="835.96" y2="820.19" fill="none" stroke="#d86830"/>
      </g>
      <g id="_311" data-name="311">
        <path d="M865.59,644.67h10.07v10.07h-10.07v-10.07Z" fill="#07b" stroke="#fff" stroke-linecap="round" stroke-linejoin="round"/>
        <line x1="870.63" y1="867.55" x2="870.63" y2="649.71" fill="none" stroke="#07b"/>
        <path d="M879.29,270.26l2.13,6.57h6.91l-5.59,4.06,2.13,6.57-5.59-4.06-5.59,4.06,2.13-6.57-5.59-4.06h6.91l2.13-6.57Z" fill="#07b" stroke="#fff" stroke-linecap="round" stroke-linejoin="round"/>
        <line x1="879.29" y1="867.55" x2="879.29" y2="279.77" fill="none" stroke="#07b"/>
        <path d="M887.96,635.64l7.65,13.25h-15.3l7.65-13.25Z" fill="#07b" stroke="#fff" stroke-linecap="round" stroke-linejoin="round"/>
        <line x1="887.96" y1="867.55" x2="887.96" y2="644.48" fill="none" stroke="#07b"/>
      </g>
      <g id="_98" data-name="98">
        <path d="M917.59,728.24h10.07v10.07h-10.07v-10.07Z" fill="#d86830" stroke="#fff" stroke-linecap="round" stroke-linejoin="round"/>
        <line x1="922.63" y1="867.55" x2="922.63" y2="733.28" fill="none" stroke="#d86830"/>
        <path d="M931.29,681.7l2.13,6.57h6.91l-5.59,4.06,2.13,6.57-5.59-4.06-5.59,4.06,2.13-6.57-5.59-4.06h6.91l2.13-6.57Z" fill="#d86830" stroke="#fff" stroke-linecap="round" stroke-linejoin="round"/>
        <line x1="931.29" y1="867.55" x2="931.29" y2="691.2" fill="none" stroke="#d86830"/>
        <path d="M939.96,662.04l7.65,13.25h-15.3l7.65-13.25Z" fill="#d86830" stroke="#fff" stroke-linecap="round" stroke-linejoin="round"/>
        <line x1="939.96" y1="867.55" x2="939.96" y2="670.88" fill="none" stroke="#d86830"/>
      </g>
      <g id="_170" data-name="170">
        <path d="M969.59,743.01h10.07v10.07h-10.07v-10.07Z" fill="#d86830" stroke="#fff" stroke-linecap="round" stroke-linejoin="round"/>
        <line x1="974.63" y1="867.55" x2="974.63" y2="748.04" fill="none" stroke="#d86830"/>
        <path d="M983.29,537.69l2.13,6.57h6.91l-5.59,4.06,2.13,6.57-5.59-4.06-5.59,4.06,2.13-6.57-5.59-4.06h6.91l2.13-6.57Z" fill="#d86830" stroke="#fff" stroke-linecap="round" stroke-linejoin="round"/>
        <line x1="983.29" y1="867.55" x2="983.29" y2="547.19" fill="none" stroke="#d86830"/>
        <path d="M991.96,755.09l7.65,13.25h-15.3l7.65-13.25Z" fill="#d86830" stroke="#fff" stroke-linecap="round" stroke-linejoin="round"/>
        <line x1="991.96" y1="867.55" x2="991.96" y2="763.92" fill="none" stroke="#d86830"/>
      </g>
      <g id="_102" data-name="102">
        <path d="M1021.59,688.69h10.07v10.07h-10.07v-10.07Z" fill="#d86830" stroke="#fff" stroke-linecap="round" stroke-linejoin="round"/>
        <line x1="1026.63" y1="867.55" x2="1026.63" y2="693.72" fill="none" stroke="#d86830"/>
        <path d="M1035.29,666.11l2.13,6.57h6.91l-5.59,4.06,2.13,6.57-5.59-4.06-5.59,4.06,2.13-6.57-5.59-4.06h6.91l2.13-6.57Z" fill="#d86830" stroke="#fff" stroke-linecap="round" stroke-linejoin="round"/>
        <line x1="1035.29" y1="867.55" x2="1035.29" y2="675.62" fill="none" stroke="#d86830"/>
        <path d="M1043.96,778.77l7.65,13.25h-15.3l7.65-13.25Z" fill="#d86830" stroke="#fff" stroke-linecap="round" stroke-linejoin="round"/>
        <line x1="1043.96" y1="867.55" x2="1043.96" y2="787.6" fill="none" stroke="#d86830"/>
      </g>
      <g id="_172" data-name="172">
        <path d="M1073.59,766.13h10.07v10.07h-10.07v-10.07Z" fill="#d86830" stroke="#fff" stroke-linecap="round" stroke-linejoin="round"/>
        <line x1="1078.63" y1="867.55" x2="1078.63" y2="771.17" fill="none" stroke="#d86830"/>
        <path d="M1087.29,256.33l2.13,6.57h6.91l-5.59,4.06,2.13,6.57-5.59-4.06-5.59,4.06,2.13-6.57-5.59-4.06h6.91l2.13-6.57Z" fill="#d86830" stroke="#fff" stroke-linecap="round" stroke-linejoin="round"/>
        <line x1="1087.29" y1="867.55" x2="1087.29" y2="265.84" fill="none" stroke="#d86830"/>
        <path d="M1095.96,776.82l7.65,13.25h-15.3l7.65-13.25Z" fill="#d86830" stroke="#fff" stroke-linecap="round" stroke-linejoin="round"/>
        <line x1="1095.96" y1="867.55" x2="1095.96" y2="785.65" fill="none" stroke="#d86830"/>
      </g>
      <g id="_313" data-name="313">
        <path d="M1125.59,662.5h10.07v10.07h-10.07v-10.07Z" fill="#07b" stroke="#fff" stroke-linecap="round" stroke-linejoin="round"/>
        <line x1="1130.63" y1="867.55" x2="1130.63" y2="667.54" fill="none" stroke="#07b"/>
        <path d="M1139.29,253.55l2.13,6.57h6.91l-5.59,4.06,2.13,6.57-5.59-4.06-5.59,4.06,2.13-6.57-5.59-4.06h6.91l2.13-6.57Z" fill="#07b" stroke="#fff" stroke-linecap="round" stroke-linejoin="round"/>
        <line x1="1139.29" y1="867.55" x2="1139.29" y2="263.05" fill="none" stroke="#07b"/>
        <path d="M1147.96,684.72l7.65,13.25h-15.3l7.65-13.25Z" fill="#07b" stroke="#fff" stroke-linecap="round" stroke-linejoin="round"/>
        <line x1="1147.96" y1="867.55" x2="1147.96" y2="693.55" fill="none" stroke="#07b"/>
      </g>
      <g id="_178" data-name="178">
        <path d="M1177.59,639.66h10.07v10.07h-10.07v-10.07Z" fill="#d86830" stroke="#fff" stroke-linecap="round" stroke-linejoin="round"/>
        <line x1="1182.63" y1="867.55" x2="1182.63" y2="644.69" fill="none" stroke="#d86830"/>
        <path d="M1191.29,167.19l2.13,6.57h6.91l-5.59,4.06,2.13,6.57-5.59-4.06-5.59,4.06,2.13-6.57-5.59-4.06h6.91l2.13-6.57Z" fill="#d86830" stroke="#fff" stroke-linecap="round" stroke-linejoin="round"/>
        <line x1="1191.29" y1="867.55" x2="1191.29" y2="176.69" fill="none" stroke="#d86830"/>
        <path d="M1199.96,683.22l7.65,13.25h-15.3l7.65-13.25Z" fill="#d86830" stroke="#fff" stroke-linecap="round" stroke-linejoin="round"/>
        <line x1="1199.96" y1="867.55" x2="1199.96" y2="692.05" fill="none" stroke="#d86830"/>
      </g>
      <g id="_171" data-name="171">
        <path d="M1229.59,770.03h10.07v10.07h-10.07v-10.07Z" fill="#d86830" stroke="#fff" stroke-linecap="round" stroke-linejoin="round"/>
        <line x1="1234.63" y1="867.55" x2="1234.63" y2="775.07" fill="none" stroke="#d86830"/>
        <path d="M1243.29,534.9l2.13,6.57h6.91l-5.59,4.06,2.13,6.57-5.59-4.06-5.59,4.06,2.13-6.57-5.59-4.06h6.91l2.13-6.57Z" fill="#d86830" stroke="#fff" stroke-linecap="round" stroke-linejoin="round"/>
        <line x1="1243.29" y1="867.55" x2="1243.29" y2="544.41" fill="none" stroke="#d86830"/>
        <path d="M1251.96,736.05l7.65,13.25h-15.3l7.65-13.25Z" fill="#d86830" stroke="#fff" stroke-linecap="round" stroke-linejoin="round"/>
        <line x1="1251.96" y1="867.55" x2="1251.96" y2="744.89" fill="none" stroke="#d86830"/>
      </g>
      <g id="_100" data-name="100">
        <path d="M1281.59,693.7h10.07v10.07h-10.07v-10.07Z" fill="#d86830" stroke="#fff" stroke-linecap="round" stroke-linejoin="round"/>
        <line x1="1286.63" y1="867.55" x2="1286.63" y2="698.74" fill="none" stroke="#d86830"/>
        <path d="M1295.29,651.63l2.13,6.57h6.91l-5.59,4.06,2.13,6.57-5.59-4.06-5.59,4.06,2.13-6.57-5.59-4.06h6.91l2.13-6.57Z" fill="#d86830" stroke="#fff" stroke-linecap="round" stroke-linejoin="round"/>
        <line x1="1295.29" y1="867.55" x2="1295.29" y2="661.13" fill="none" stroke="#d86830"/>
        <path d="M1303.96,753.69l7.65,13.25h-15.3l7.65-13.25Z" fill="#d86830" stroke="#fff" stroke-linecap="round" stroke-linejoin="round"/>
        <line x1="1303.96" y1="867.55" x2="1303.96" y2="762.53" fill="none" stroke="#d86830"/>
      </g>
      <g id="_121" data-name="121">
        <path d="M1333.59,747.47h10.07v10.07h-10.07v-10.07Z" fill="#d86830" stroke="#fff" stroke-linecap="round" stroke-linejoin="round"/>
        <line x1="1338.63" y1="867.55" x2="1338.63" y2="752.5" fill="none" stroke="#d86830"/>
        <path d="M1347.29,668.02l2.13,6.57h6.91l-5.59,4.06,2.13,6.57-5.59-4.06-5.59,4.06,2.13-6.57-5.59-4.06h6.91l2.13-6.57Z" fill="#d86830" stroke="#fff" stroke-linecap="round" stroke-linejoin="round"/>
        <line x1="1347.29" y1="867.55" x2="1347.29" y2="677.53" fill="none" stroke="#d86830"/>
        <path d="M1355.96,772.36l7.65,13.25h-15.3l7.65-13.25Z" fill="#d86830" stroke="#fff" stroke-linecap="round" stroke-linejoin="round"/>
        <line x1="1355.96" y1="867.55" x2="1355.96" y2="781.19" fill="none" stroke="#d86830"/>
      </g>
      <g id="_139" data-name="139">
        <path d="M1385.59,699.27h10.07v10.07h-10.07v-10.07Z" fill="#d86830" stroke="#fff" stroke-linecap="round" stroke-linejoin="round"/>
        <line x1="1390.63" y1="867.55" x2="1390.63" y2="704.31" fill="none" stroke="#d86830"/>
        <path d="M1399.29,437.4l2.13,6.57h6.91l-5.59,4.06,2.13,6.57-5.59-4.06-5.59,4.06,2.13-6.57-5.59-4.06h6.91l2.13-6.57Z" fill="#d86830" stroke="#fff" stroke-linecap="round" stroke-linejoin="round"/>
        <line x1="1399.29" y1="867.55" x2="1399.29" y2="446.91" fill="none" stroke="#d86830"/>
        <path d="M1407.96,777.93l7.65,13.25h-15.3l7.65-13.25Z" fill="#d86830" stroke="#fff" stroke-linecap="round" stroke-linejoin="round"/>
        <line x1="1407.96" y1="867.55" x2="1407.96" y2="786.77" fill="none" stroke="#d86830"/>
      </g>
    </g>
  </g>
  <g id="legend-container">
    <g id="color-legend-container">
      <g id="legend-color-title">
        <text transform="translate(1438.29 105.75)" font-family="Poppins-Bold, Poppins" font-size="18.2" font-weight="700" isolation="isolate"><tspan x="0" y="0">FOOD ITEM GROUP</tspan></text>
      </g>
      <g>
        <g id="legend-color-item-Dishes">
          <rect x="1438.29" y="143.17" width="20.8" height="20.8" fill="#d86830"/>
          <text transform="translate(1475.59 159.81)" font-family="Poppins-Regular, Poppins" font-size="18.72" isolation="isolate"><tspan x="0" y="0">dishes</tspan></text>
        </g>
        <g id="legend-color-item-Sandwiches">
          <rect x="1438.29" y="194.37" width="20.8" height="20.8" fill="#07b"/>
          <text transform="translate(1475.59 211.01)" font-family="Poppins-Regular, Poppins" font-size="18.72" isolation="isolate"><tspan x="0" y="0">sandwiches</tspan></text>
        </g>
      </g>
    </g>
    <g id="shape-legend-container">
      <g id="legend-shape-title">
        <text transform="translate(1438.29 293.01)" font-family="Poppins-Bold, Poppins" font-size="18.2" font-weight="700" isolation="isolate"><tspan x="0" y="0">TYPES OF NUTRIENTS</tspan></text>
      </g>
      <g>
        <g id="legend-shape-item-Protein">
          <path d="M1439.76,328.58h10.07v10.07h-10.07v-10.07Z"/>
          <text transform="translate(1465.59 341.94)" font-family="Poppins-Regular, Poppins" font-size="18.72" isolation="isolate"><tspan x="0" y="0">Protein</tspan></text>
        </g>
        <g id="legend-shape-item-Carbohydrate">
          <path d="M1444.79,374.3l2.13,6.57h6.91l-5.59,4.06,2.13,6.57-5.59-4.06-5.59,4.06,2.13-6.57-5.59-4.06h6.91s2.13-6.57,2.13-6.57Z"/>
          <text transform="translate(1465.59 392.12)" font-family="Poppins-Regular, Poppins" font-size="18.72" isolation="isolate"><tspan x="0" y="0">Carbohydrate</tspan></text>
        </g>
        <g id="legend-shape-item-Fat">
          <path d="M1444.79,425.15l7.65,13.25h-15.3l7.65-13.25Z"/>
          <text transform="translate(1465.59 442.3)" font-family="Poppins-Regular, Poppins" font-size="18.72" isolation="isolate"><tspan x="0" y="0">Fat</tspan></text>
        </g>
      </g>
    </g>
  </g>
</svg>