<svg class="plot-d6a7b5" fill="currentColor" font-family="system-ui, sans-serif" font-size="10" text-anchor="middle"
        width="640" height="400" viewBox="0 0 800 500" xmlns="http://www.w3.org/2000/svg"
        xmlns:xlink="http://www.w3.org/1999/xlink">
        <style>
            :where(.plot-d6a7b5) {
                --plot-background: white;
                display: block;
                height: auto;
                height: intrinsic;
                max-width: 100%;
            }

            :where(.plot-d6a7b5 text),
            :where(.plot-d6a7b5 tspan) {
                white-space: pre;
            }
        </style>
        <g aria-label="y-axis tick" aria-hidden="true" fill="none" stroke="currentColor">
            <path transform="translate(40,370)" d="M0,0L-6,0" />
            <path transform="translate(40,320)" d="M0,0L-6,0" />
            <path transform="translate(40,270)" d="M0,0L-6,0" />
            <path transform="translate(40,220)" d="M0,0L-6,0" />
            <path transform="translate(40,170)" d="M0,0L-6,0" />
            <path transform="translate(40,120)" d="M0,0L-6,0" />
            <path transform="translate(40,70.00000000000001)" d="M0,0L-6,0" />
            <path transform="translate(40,20)" d="M0,0L-6,0" />
        </g>
        <g aria-label="y-axis tick label" text-anchor="end" font-variant="tabular-nums" transform="translate(-9,0)">
            <text y="0.32em" transform="translate(40,370)">0</text><text y="0.32em"
                transform="translate(40,320)">5</text><text y="0.32em" transform="translate(40,270)">10</text><text
                y="0.32em" transform="translate(40,220)">15</text><text y="0.32em"
                transform="translate(40,170)">20</text><text y="0.32em" transform="translate(40,120)">25</text><text
                y="0.32em" transform="translate(40,70.00000000000001)">30</text><text y="0.32em"
                transform="translate(40,20)">35</text>
        </g>
        <g aria-label="y-axis label" transform="translate(-37,0)"><text y="0.71em"
                transform="translate(40,195) rotate(-90)">NUTRITIONAL VALUE (g/100g)</text></g>
        <g aria-label="x-axis tick" aria-hidden="true" fill="none" stroke="currentColor">
            <path transform="translate(98,370)" d="M0,0L0,6" />
            <path transform="translate(214,370)" d="M0,0L0,6" />
            <path transform="translate(330,370)" d="M0,0L0,6" />
            <path transform="translate(446,370)" d="M0,0L0,6" />
            <path transform="translate(562,370)" d="M0,0L0,6" />
        </g>
        <g aria-label="x-axis tick label" transform="translate(0,9)"><text y="0.71em"
                transform="translate(98,370)">167</text><text y="0.71em" transform="translate(214,370)">190</text><text
                y="0.71em" transform="translate(330,370)">216</text><text y="0.71em"
                transform="translate(446,370)">298</text><text y="0.71em" transform="translate(562,370)">300</text></g>
        <g aria-label="x-axis label" text-anchor="end" transform="translate(17,27)"><text
                transform="translate(620,370)">FOOD ITEM</text></g>
        <g aria-label="rule" transform="translate(-10,0)">
            <line x1="98" x2="98" y1="370" y2="302.3" stroke="Green" />
            <line x1="214" x2="214" y1="370" y2="284" stroke="Green" />
            <line x1="330" x2="330" y1="370" y2="295.5" stroke="Green" />
            <line x1="562" x2="562" y1="370" y2="304.6" stroke="purple" />
            <line x1="446" x2="446" y1="370" y2="228" stroke="purple" />
        </g>
        <g aria-label="dot" transform="translate(-10,0)">
            <path transform="translate(98,302.3)"
                d="M-4.756,-1.585L-1.585,-1.585L-1.585,-4.756L1.585,-4.756L1.585,-1.585L4.756,-1.585L4.756,1.585L1.585,1.585L1.585,4.756L-1.585,4.756L-1.585,1.585L-4.756,1.585Z"
                fill="Green" />
            <path transform="translate(214,284)"
                d="M-4.756,-1.585L-1.585,-1.585L-1.585,-4.756L1.585,-4.756L1.585,-1.585L4.756,-1.585L4.756,1.585L1.585,1.585L1.585,4.756L-1.585,4.756L-1.585,1.585L-4.756,1.585Z"
                fill="Green" />
            <path transform="translate(330,295.5)"
                d="M-4.756,-1.585L-1.585,-1.585L-1.585,-4.756L1.585,-4.756L1.585,-1.585L4.756,-1.585L4.756,1.585L1.585,1.585L1.585,4.756L-1.585,4.756L-1.585,1.585L-4.756,1.585Z"
                fill="Green" />
            <path transform="translate(562,304.6)"
                d="M-4.756,-1.585L-1.585,-1.585L-1.585,-4.756L1.585,-4.756L1.585,-1.585L4.756,-1.585L4.756,1.585L1.585,1.585L1.585,4.756L-1.585,4.756L-1.585,1.585L-4.756,1.585Z"
                fill="purple" />
            <path transform="translate(446,228)"
                d="M-4.756,-1.585L-1.585,-1.585L-1.585,-4.756L1.585,-4.756L1.585,-1.585L4.756,-1.585L4.756,1.585L1.585,1.585L1.585,4.756L-1.585,4.756L-1.585,1.585L-4.756,1.585Z"
                fill="purple" />
        </g>
        <g aria-label="rule">
            <line x1="98" x2="98" y1="370" y2="75" stroke="Green" />
            <line x1="214" x2="214" y1="370" y2="61.00000000000003" stroke="Green" />
            <line x1="330" x2="330" y1="370" y2="92.00000000000001" stroke="Green" />
            <line x1="562" x2="562" y1="370" y2="70.00000000000001" stroke="purple" />
            <line x1="446" x2="446" y1="370" y2="98" stroke="purple" />
        </g>
        <g aria-label="dot">
            <path transform="translate(98,75)" d="M0,-4.44L4.44,0L0,4.44L-4.44,0Z" fill="Green" />
            <path transform="translate(214,61.00000000000003)" d="M0,-4.44L4.44,0L0,4.44L-4.44,0Z" fill="Green" />
            <path transform="translate(330,92.00000000000001)" d="M0,-4.44L4.44,0L0,4.44L-4.44,0Z" fill="Green" />
            <path transform="translate(562,70.00000000000001)" d="M0,-4.44L4.44,0L0,4.44L-4.44,0Z" fill="purple" />
            <path transform="translate(446,98)" d="M0,-4.44L4.44,0L0,4.44L-4.44,0Z" fill="purple" />
        </g>
        <g aria-label="rule" transform="translate(10,0)">
            <line x1="98" x2="98" y1="370" y2="321.59999999999997" stroke="Green" />
            <line x1="214" x2="214" y1="370" y2="318.4" stroke="Green" />
            <line x1="330" x2="330" y1="370" y2="267" stroke="Green" />
            <line x1="562" x2="562" y1="370" y2="291" stroke="purple" />
            <line x1="446" x2="446" y1="370" y2="286.5" stroke="purple" />
        </g>
        <g aria-label="dot" transform="translate(10,0)">
            <circle cx="98" cy="321.59999999999997" r="4" fill="Green" />
            <circle cx="214" cy="318.4" r="4" fill="Green" />
            <circle cx="330" cy="267" r="4" fill="Green" />
            <circle cx="562" cy="291" r="4" fill="purple" />
            <circle cx="446" cy="286.5" r="4" fill="purple" />
        </g>
        <g aria-label="y-grid" aria-hidden="true" stroke="gray" stroke-opacity="0.3">
            <line x1="40" x2="620" y1="370" y2="370" />
            <line x1="40" x2="620" y1="320" y2="320" />
            <line x1="40" x2="620" y1="270" y2="270" />
            <line x1="40" x2="620" y1="220" y2="220" />
            <line x1="40" x2="620" y1="170" y2="170" />
            <line x1="40" x2="620" y1="120" y2="120" />
            <line x1="40" x2="620" y1="70.00000000000001" y2="70.00000000000001" />
            <line x1="40" x2="620" y1="20" y2="20" />
        </g>

        //legend
        <foreignObject width="100" height="400" x="640" y="20">
            <div xmlns="http://www.w3.org/1999/xhtml">FOOD ITEM GROUP</div>
            <div xmlns="http://www.w3.org/1999/xhtml" class="plot-d6a7b5-swatches plot-d6a7b5-swatches-wrap">
                <style>
                    :where(.plot-d6a7b5-swatches) {
                        font-family: system-ui, sans-serif;
                        font-size: 10px;
                        margin-bottom: 0.5em;
                    }

                    :where(.plot-d6a7b5-swatch &gt; svg) {
                        margin-right: 0.5em;
                        overflow: visible;
                    }

                    :where(.plot-d6a7b5-swatches-wrap) {
                        display: flex;
                        align-items: center;
                        min-height: 33px;
                        flex-wrap: wrap;
                    }

                    :where(.plot-d6a7b5-swatches-wrap .plot-d6a7b5-swatch) {
                        display: inline-flex;
                        align-items: center;
                        margin-right: 1em;
                    }
                </style>
                <span class="plot-d6a7b5-swatch">
                    <svg xmlns="http://www.w3.org/2000/svg" width="15" height="15" fill="Green">
                        <rect width="100%" height="100%" />
                    </svg>dishes
                </span>
                <span class="plot-d6a7b5-swatch">
                    <svg xmlns="http://www.w3.org/2000/svg" width="15" height="15" fill="purple">
                        <rect width="100%" height="100%" />
                    </svg>sandwiches
                </span>
            </div>

            
            <div xmlns="http://www.w3.org/1999/xhtml">TYPES OF NUTRIENTS</div>
            <div xmlns="http://www.w3.org/1999/xhtml" class="plot-d6a7b5-swatches plot-d6a7b5-swatches-wrap">
                
                <span class="plot-d6a7b5-swatch">
                    <svg xmlns="http://www.w3.org/2000/svg" viewBox="-8 -8 16 16" width="15" height="15" fill-opacity="1" stroke-opacity="1"
                        stroke-width="1.5">
                        <path
                            d="M-5.35,-1.783L-1.783,-1.783L-1.783,-5.35L1.783,-5.35L1.783,-1.783L5.35,-1.783L5.35,1.783L1.783,1.783L1.783,5.35L-1.783,5.35L-1.783,1.783L-5.35,1.783Z">
                        </path>
                    </svg>Protein
                </span>
                <span class="plot-d6a7b5-swatch">
                    <svg xmlns="http://www.w3.org/2000/svg" viewBox="-8 -8 16 16" width="15" height="15" fill-opacity="1" stroke-opacity="1"
                        stroke-width="1.5">
                        <path d="M0,-4.44L4.44,0L0,4.44L-4.44,0Z"></path>
                    </svg>Carbohydrate
                </span>
                <span class="plot-d6a7b5-swatch">
                    <svg xmlns="http://www.w3.org/2000/svg" viewBox="-8 -8 16 16" width="15" height="15" fill-opacity="1" stroke-opacity="1"
                        stroke-width="1.5">
                        <path d="M4.5,0A4.5,4.5,0,1,1,-4.5,0A4.5,4.5,0,1,1,4.5,0"></path>
                    </svg>
                    Fat
                </span>
            </div>
        </foreignObject>
    </svg>