<svg class="plot-d6a7b5" fill="currentColor" font-family="system-ui, sans-serif" font-size="10" text-anchor="middle" width="700" height="500" viewBox="0 0 800 500" xmlns="http://www.w3.org/2000/svg" xmlns:xlink="http://www.w3.org/1999/xlink"><style>:where(.plot-d6a7b5) {
  --plot-background: white;
  display: block;
  height: auto;
  height: intrinsic;
  max-width: 100%;
}
:where(.plot-d6a7b5 text),
:where(.plot-d6a7b5 tspan) {
  white-space: pre;
}</style><g aria-label="y-axis tick" aria-hidden="true" fill="none" stroke="currentColor"><path transform="translate(40,470)" d="M0,0L-6,0"/><path transform="translate(40,425)" d="M0,0L-6,0"/><path transform="translate(40,380)" d="M0,0L-6,0"/><path transform="translate(40,335)" d="M0,0L-6,0"/><path transform="translate(40,290)" d="M0,0L-6,0"/><path transform="translate(40,245)" d="M0,0L-6,0"/><path transform="translate(40,200)" d="M0,0L-6,0"/><path transform="translate(40,155.00000000000003)" d="M0,0L-6,0"/><path transform="translate(40,109.99999999999999)" d="M0,0L-6,0"/><path transform="translate(40,65)" d="M0,0L-6,0"/><path transform="translate(40,20)" d="M0,0L-6,0"/></g><g aria-label="y-axis tick label" text-anchor="end" font-variant="tabular-nums" transform="translate(-9,0)"><text y="0.32em" transform="translate(40,470)">0</text><text y="0.32em" transform="translate(40,425)">2</text><text y="0.32em" transform="translate(40,380)">4</text><text y="0.32em" transform="translate(40,335)">6</text><text y="0.32em" transform="translate(40,290)">8</text><text y="0.32em" transform="translate(40,245)">10</text><text y="0.32em" transform="translate(40,200)">12</text><text y="0.32em" transform="translate(40,155.00000000000003)">14</text><text y="0.32em" transform="translate(40,109.99999999999999)">16</text><text y="0.32em" transform="translate(40,65)">18</text><text y="0.32em" transform="translate(40,20)">20</text></g><g aria-label="y-axis label" transform="translate(-37,0)"><text y="0.71em" transform="translate(40,245) rotate(-90)">MATH SCORE AT THE END OF HIGHSCHOOL (on a 20-point scale)</text></g><g aria-label="x-axis tick" aria-hidden="true" fill="none" stroke="currentColor"><path transform="translate(40,470)" d="M0,0L0,6"/><path transform="translate(104,470)" d="M0,0L0,6"/><path transform="translate(168,470)" d="M0,0L0,6"/><path transform="translate(232,470)" d="M0,0L0,6"/><path transform="translate(296,470)" d="M0,0L0,6"/><path transform="translate(360,470)" d="M0,0L0,6"/><path transform="translate(424,470)" d="M0,0L0,6"/><path transform="translate(487.99999999999994,470)" d="M0,0L0,6"/><path transform="translate(552,470)" d="M0,0L0,6"/><path transform="translate(616,470)" d="M0,0L0,6"/><path transform="translate(680,470)" d="M0,0L0,6"/></g><g aria-label="x-axis tick label" font-variant="tabular-nums" transform="translate(0,9)"><text y="0.71em" transform="translate(40,470)">0</text><text y="0.71em" transform="translate(104,470)">2</text><text y="0.71em" transform="translate(168,470)">4</text><text y="0.71em" transform="translate(232,470)">6</text><text y="0.71em" transform="translate(296,470)">8</text><text y="0.71em" transform="translate(360,470)">10</text><text y="0.71em" transform="translate(424,470)">12</text><text y="0.71em" transform="translate(487.99999999999994,470)">14</text><text y="0.71em" transform="translate(552,470)">16</text><text y="0.71em" transform="translate(616,470)">18</text><text y="0.71em" transform="translate(680,470)">20</text></g><g aria-label="x-axis label" transform="translate(0,27)"><text transform="translate(360,470)">MATH SCORE AT THE BEGINNING OF HIGHSCHOOL (on a 20-point scale)</text></g><g aria-label="dot"><circle opacity="0.7" cx="523.5507692307692" cy="266.79615384615386" r="4" fill="#4269d0"/><circle opacity="0.7" cx="425.0215384615384" cy="303.62115384615396" r="4" fill="#4269d0"/><circle opacity="0.7" cx="283.19999999999993" cy="348.0153846153846" r="4" fill="#4269d0"/><circle opacity="0.7" cx="600" cy="172.30769230769232" r="4" fill="#4269d0"/><circle opacity="0.7" cx="436.7999999999999" cy="195.8115384615385" r="4" fill="#4269d0"/><circle opacity="0.7" cx="465.5999999999999" cy="315.8576923076923" r="4" fill="#4269d0"/><circle opacity="0.7" cx="429.7907692307693" cy="277.6884615384616" r="4" fill="#4269d0"/><circle opacity="0.7" cx="591.6430769230769" cy="110.00000000000003" r="4" fill="#4269d0"/><circle opacity="0.7" cx="228.79999999999995" cy="390.8" r="4" fill="#4269d0"/><circle opacity="0.7" cx="363.19999999999993" cy="380.3576923076924" r="4" fill="#4269d0"/><circle opacity="0.7" cx="552" cy="205.26153846153852" r="4" fill="#4269d0"/><circle opacity="0.7" cx="469.2307692307692" cy="264.6326923076923" r="4" fill="#4269d0"/><circle opacity="0.7" cx="524.8000000000001" cy="205.7115384615385" r="4" fill="#4269d0"/><circle opacity="0.7" cx="299.19999999999993" cy="309.24615384615396" r="4" fill="#4269d0"/><circle opacity="0.7" cx="493.2676923076923" cy="317" r="4" fill="#4269d0"/><circle opacity="0.7" cx="200" cy="155.35192307692313" r="4" fill="#4269d0"/><circle opacity="0.7" cx="458.5907692307693" cy="277.8211538461539" r="4" fill="#4269d0"/><circle opacity="0.7" cx="500.79999999999995" cy="238.4923076923077" r="4" fill="#4269d0"/><circle opacity="0.7" cx="548.8" cy="271.23846153846154" r="4" fill="#4269d0"/><circle opacity="0.7" cx="456" cy="306.09038461538466" r="4" fill="#4269d0"/><circle opacity="0.7" cx="171.19999999999996" cy="307.05961538461537" r="4" fill="#4269d0"/><circle opacity="0.7" cx="401.6" cy="227.93461538461543" r="4" fill="#4269d0"/><circle opacity="0.7" cx="539.1999999999999" cy="265.2096153846154" r="4" fill="#4269d0"/><circle opacity="0.7" cx="475.20000000000005" cy="345.74230769230775" r="4" fill="#4269d0"/><circle opacity="0.7" cx="273.6" cy="301.8442307692308" r="4" fill="#4269d0"/><circle opacity="0.7" cx="548.8" cy="303.1826923076923" r="4" fill="#4269d0"/><circle opacity="0.7" cx="91.19999999999999" cy="318.08461538461535" r="4" fill="#4269d0"/><circle opacity="0.7" cx="337.59999999999997" cy="357.2288461538462" r="4" fill="#4269d0"/><circle opacity="0.7" cx="504.75692307692304" cy="355.24999999999994" r="4" fill="#4269d0"/><circle opacity="0.7" cx="292.7999999999999" cy="241.74615384615387" r="4" fill="#4269d0"/><circle opacity="0.7" cx="252.79999999999995" cy="233.75" r="4" fill="#efb118"/><circle opacity="0.7" cx="277.92" cy="302.9576923076923" r="4" fill="#efb118"/><circle opacity="0.7" cx="494.6461538461539" cy="236.2192307692308" r="4" fill="#efb118"/><circle opacity="0.7" cx="311.7292307692308" cy="387.33269230769224" r="4" fill="#efb118"/><circle opacity="0.7" cx="126.80615384615379" cy="392.6692307692308" r="4" fill="#efb118"/><circle opacity="0.7" cx="263.3784615384615" cy="357.5000000000001" r="4" fill="#efb118"/><circle opacity="0.7" cx="584" cy="121.24999999999999" r="4" fill="#efb118"/><circle opacity="0.7" cx="198.7753846153846" cy="393.54615384615386" r="4" fill="#efb118"/><circle opacity="0.7" cx="441.5999999999999" cy="247.40000000000006" r="4" fill="#efb118"/><circle opacity="0.7" cx="331.77846153846156" cy="269.13269230769225" r="4" fill="#efb118"/><circle opacity="0.7" cx="179.57538461538456" cy="422.41538461538465" r="4" fill="#efb118"/><circle opacity="0.7" cx="351.98153846153843" cy="290.00000000000006" r="4" fill="#efb118"/><circle opacity="0.7" cx="401.8461538461538" cy="386.69807692307694" r="4" fill="#efb118"/><circle opacity="0.7" cx="562.8984615384616" cy="189.95576923076928" r="4" fill="#efb118"/><circle opacity="0.7" cx="353.9446153846154" cy="428.2826923076923" r="4" fill="#efb118"/><circle opacity="0.7" cx="407.28615384615387" cy="225.2173076923077" r="4" fill="#efb118"/><circle opacity="0.7" cx="318.99692307692305" cy="382.40000000000003" r="4" fill="#efb118"/><circle opacity="0.7" cx="132.0984615384615" cy="388.8442307692307" r="4" fill="#efb118"/><circle opacity="0.7" cx="529.5999999999999" cy="274.0423076923077" r="4" fill="#efb118"/><circle opacity="0.7" cx="465.8461538461538" cy="153.90384615384622" r="4" fill="#efb118"/><circle opacity="0.7" cx="252.79999999999995" cy="355.34807692307703" r="4" fill="#efb118"/><circle opacity="0.7" cx="407.99999999999994" cy="326.36923076923085" r="4" fill="#efb118"/><circle opacity="0.7" cx="321.7661538461539" cy="310.4865384615385" r="4" fill="#efb118"/><circle opacity="0.7" cx="398.5046153846154" cy="240.71923076923082" r="4" fill="#efb118"/><circle opacity="0.7" cx="458.33846153846156" cy="301.25000000000006" r="4" fill="#efb118"/><circle opacity="0.7" cx="96.18461538461537" cy="348.84615384615387" r="4" fill="#efb118"/><circle opacity="0.7" cx="465.8461538461538" cy="312.8288461538462" r="4" fill="#efb118"/><circle opacity="0.7" cx="342.64" cy="307.17500000000007" r="4" fill="#efb118"/><circle opacity="0.7" cx="475.44615384615383" cy="270.0557692307693" r="4" fill="#efb118"/><circle opacity="0.7" cx="536.7384615384616" cy="339.1307692307693" r="4" fill="#efb118"/><circle opacity="0.7" cx="235.19999999999993" cy="345.8519230769231" r="4" fill="#4269d0"/><circle opacity="0.7" cx="244.79999999999995" cy="353.2076923076923" r="4" fill="#4269d0"/><circle opacity="0.7" cx="52.799999999999955" cy="383.20769230769235" r="4" fill="#4269d0"/><circle opacity="0.7" cx="502.8676923076923" cy="317.37500000000006" r="4" fill="#4269d0"/><circle opacity="0.7" cx="480.65230769230766" cy="358.93653846153853" r="4" fill="#4269d0"/><circle opacity="0.7" cx="451.8523076923077" cy="353.801923076923" r="4" fill="#4269d0"/><circle opacity="0.7" cx="401.6" cy="305.8019230769232" r="4" fill="#4269d0"/><circle opacity="0.7" cx="570.6523076923077" cy="301.91346153846155" r="4" fill="#4269d0"/><circle opacity="0.7" cx="363.19999999999993" cy="419.81346153846164" r="4" fill="#4269d0"/><circle opacity="0.7" cx="432.0984615384615" cy="303.12500000000006" r="4" fill="#4269d0"/><circle opacity="0.7" cx="356.79999999999995" cy="193.21538461538466" r="4" fill="#4269d0"/><circle opacity="0.7" cx="547.2" cy="235.14615384615394" r="4" fill="#4269d0"/><circle opacity="0.7" cx="209.60000000000002" cy="355.27307692307704" r="4" fill="#4269d0"/><circle opacity="0.7" cx="155.19999999999993" cy="347.04615384615397" r="4" fill="#4269d0"/><circle opacity="0.7" cx="276.7261538461538" cy="346.04807692307696" r="4" fill="#4269d0"/><circle opacity="0.7" cx="515.8523076923077" cy="382.40000000000003" r="4" fill="#4269d0"/><circle opacity="0.7" cx="508.79999999999995" cy="281.28846153846155" r="4" fill="#4269d0"/><circle opacity="0.7" cx="525.9876923076924" cy="167.55961538461543" r="4" fill="#4269d0"/><circle opacity="0.7" cx="520.9230769230769" cy="327.5576923076923" r="4" fill="#4269d0"/><circle opacity="0.7" cx="513.92" cy="232.77499999999998" r="4" fill="#4269d0"/><circle opacity="0.7" cx="491.8584615384615" cy="277.6480769230769" r="4" fill="#4269d0"/><circle opacity="0.7" cx="520" cy="169.9134615384616" r="4" fill="#4269d0"/><circle opacity="0.7" cx="392.00000000000006" cy="385.1576923076924" r="4" fill="#4269d0"/><circle opacity="0.7" cx="529.5999999999999" cy="312.24038461538464" r="4" fill="#4269d0"/><circle opacity="0.7" cx="387.19999999999993" cy="312.50000000000006" r="4" fill="#4269d0"/><circle opacity="0.7" cx="514.0430769230769" cy="342.10769230769233" r="4" fill="#4269d0"/><circle opacity="0.7" cx="484.2953846153846" cy="379.02500000000003" r="4" fill="#4269d0"/><circle opacity="0.7" cx="456" cy="312.8115384615385" r="4" fill="#4269d0"/><circle opacity="0.7" cx="559.150769230769" cy="169.74615384615387" r="4" fill="#4269d0"/><circle opacity="0.7" cx="337.59999999999997" cy="318.87500000000006" r="4" fill="#4269d0"/></g><g aria-label="x-grid" aria-hidden="true" stroke="gray" stroke-opacity="0.5"><line x1="40" x2="40" y1="20" y2="470"/><line x1="56" x2="56" y1="20" y2="470"/><line x1="72" x2="72" y1="20" y2="470"/><line x1="88" x2="88" y1="20" y2="470"/><line x1="104" x2="104" y1="20" y2="470"/><line x1="120" x2="120" y1="20" y2="470"/><line x1="136" x2="136" y1="20" y2="470"/><line x1="152" x2="152" y1="20" y2="470"/><line x1="168" x2="168" y1="20" y2="470"/><line x1="184" x2="184" y1="20" y2="470"/><line x1="200" x2="200" y1="20" y2="470"/><line x1="216.00000000000003" x2="216.00000000000003" y1="20" y2="470"/><line x1="232" x2="232" y1="20" y2="470"/><line x1="248" x2="248" y1="20" y2="470"/><line x1="264" x2="264" y1="20" y2="470"/><line x1="280" x2="280" y1="20" y2="470"/><line x1="296" x2="296" y1="20" y2="470"/><line x1="312" x2="312" y1="20" y2="470"/><line x1="328" x2="328" y1="20" y2="470"/><line x1="344" x2="344" y1="20" y2="470"/><line x1="360" x2="360" y1="20" y2="470"/><line x1="376" x2="376" y1="20" y2="470"/><line x1="392.00000000000006" x2="392.00000000000006" y1="20" y2="470"/><line x1="407.99999999999994" x2="407.99999999999994" y1="20" y2="470"/><line x1="424" x2="424" y1="20" y2="470"/><line x1="440" x2="440" y1="20" y2="470"/><line x1="456" x2="456" y1="20" y2="470"/><line x1="472.00000000000006" x2="472.00000000000006" y1="20" y2="470"/><line x1="487.99999999999994" x2="487.99999999999994" y1="20" y2="470"/><line x1="504" x2="504" y1="20" y2="470"/><line x1="520" x2="520" y1="20" y2="470"/><line x1="536" x2="536" y1="20" y2="470"/><line x1="552" x2="552" y1="20" y2="470"/><line x1="568" x2="568" y1="20" y2="470"/><line x1="584" x2="584" y1="20" y2="470"/><line x1="600" x2="600" y1="20" y2="470"/><line x1="616" x2="616" y1="20" y2="470"/><line x1="632" x2="632" y1="20" y2="470"/><line x1="648" x2="648" y1="20" y2="470"/><line x1="664" x2="664" y1="20" y2="470"/><line x1="680" x2="680" y1="20" y2="470"/></g><g aria-label="y-grid" aria-hidden="true" stroke="gray" stroke-opacity="0.5"><line x1="40" x2="680" y1="470" y2="470"/><line x1="40" x2="680" y1="458.75" y2="458.75"/><line x1="40" x2="680" y1="447.5" y2="447.5"/><line x1="40" x2="680" y1="436.25" y2="436.25"/><line x1="40" x2="680" y1="425" y2="425"/><line x1="40" x2="680" y1="413.75" y2="413.75"/><line x1="40" x2="680" y1="402.5" y2="402.5"/><line x1="40" x2="680" y1="391.25" y2="391.25"/><line x1="40" x2="680" y1="380" y2="380"/><line x1="40" x2="680" y1="368.75" y2="368.75"/><line x1="40" x2="680" y1="357.5" y2="357.5"/><line x1="40" x2="680" y1="346.25" y2="346.25"/><line x1="40" x2="680" y1="335" y2="335"/><line x1="40" x2="680" y1="323.75" y2="323.75"/><line x1="40" x2="680" y1="312.5" y2="312.5"/><line x1="40" x2="680" y1="301.25" y2="301.25"/><line x1="40" x2="680" y1="290" y2="290"/><line x1="40" x2="680" y1="278.75" y2="278.75"/><line x1="40" x2="680" y1="267.5" y2="267.5"/><line x1="40" x2="680" y1="256.25" y2="256.25"/><line x1="40" x2="680" y1="245" y2="245"/><line x1="40" x2="680" y1="233.75" y2="233.75"/><line x1="40" x2="680" y1="222.49999999999997" y2="222.49999999999997"/><line x1="40" x2="680" y1="211.25000000000003" y2="211.25000000000003"/><line x1="40" x2="680" y1="200" y2="200"/><line x1="40" x2="680" y1="188.75" y2="188.75"/><line x1="40" x2="680" y1="177.5" y2="177.5"/><line x1="40" x2="680" y1="166.24999999999997" y2="166.24999999999997"/><line x1="40" x2="680" y1="155.00000000000003" y2="155.00000000000003"/><line x1="40" x2="680" y1="143.75" y2="143.75"/><line x1="40" x2="680" y1="132.5" y2="132.5"/><line x1="40" x2="680" y1="121.24999999999999" y2="121.24999999999999"/><line x1="40" x2="680" y1="109.99999999999999" y2="109.99999999999999"/><line x1="40" x2="680" y1="98.75000000000001" y2="98.75000000000001"/><line x1="40" x2="680" y1="87.50000000000001" y2="87.50000000000001"/><line x1="40" x2="680" y1="76.25" y2="76.25"/><line x1="40" x2="680" y1="65" y2="65"/><line x1="40" x2="680" y1="53.74999999999998" y2="53.74999999999998"/><line x1="40" x2="680" y1="42.50000000000002" y2="42.50000000000002"/><line x1="40" x2="680" y1="31.25000000000001" y2="31.25000000000001"/><line x1="40" x2="680" y1="20" y2="20"/></g><g aria-label="x-grid" aria-hidden="true" stroke="black" stroke-opacity="0.5"><line x1="40" x2="40" y1="20" y2="470"/><line x1="104" x2="104" y1="20" y2="470"/><line x1="168" x2="168" y1="20" y2="470"/><line x1="232" x2="232" y1="20" y2="470"/><line x1="296" x2="296" y1="20" y2="470"/><line x1="360" x2="360" y1="20" y2="470"/><line x1="424" x2="424" y1="20" y2="470"/><line x1="487.99999999999994" x2="487.99999999999994" y1="20" y2="470"/><line x1="552" x2="552" y1="20" y2="470"/><line x1="616" x2="616" y1="20" y2="470"/><line x1="680" x2="680" y1="20" y2="470"/></g><g aria-label="y-grid" aria-hidden="true" stroke="black" stroke-opacity="0.5"><line x1="40" x2="680" y1="470" y2="470"/><line x1="40" x2="680" y1="425" y2="425"/><line x1="40" x2="680" y1="380" y2="380"/><line x1="40" x2="680" y1="335" y2="335"/><line x1="40" x2="680" y1="290" y2="290"/><line x1="40" x2="680" y1="245" y2="245"/><line x1="40" x2="680" y1="200" y2="200"/><line x1="40" x2="680" y1="155.00000000000003" y2="155.00000000000003"/><line x1="40" x2="680" y1="109.99999999999999" y2="109.99999999999999"/><line x1="40" x2="680" y1="65" y2="65"/><line x1="40" x2="680" y1="20" y2="20"/></g><rect aria-label="frame" fill="none" stroke="currentColor" x="40" y="20" width="640" height="450"/><foreignObject width="100" height="80" x="700" y="20"><div xmlns="http://www.w3.org/1999/xhtml">STUDENTS ENROLLED IN COLLEGE AFTER GRADUATION</div><div xmlns="http://www.w3.org/1999/xhtml" class="plot-d6a7b5-swatches plot-d6a7b5-swatches-wrap"><style>:where(.plot-d6a7b5-swatches) {
  font-family: system-ui, sans-serif;
  font-size: 10px;
  margin-bottom: 0.5em;
}
:where(.plot-d6a7b5-swatch &gt; svg) {
  margin-right: 0.5em;
  overflow: visible;
}
:where(.plot-d6a7b5-swatches-wrap) {
  display: flex;
  align-items: center;
  min-height: 33px;
  flex-wrap: wrap;
}
:where(.plot-d6a7b5-swatches-wrap .plot-d6a7b5-swatch) {
  display: inline-flex;
  align-items: center;
  margin-right: 1em;
}</style><span class="plot-d6a7b5-swatch"><svg xmlns="http://www.w3.org/2000/svg" width="15" height="15" fill="#4269d0"><rect width="100%" height="100%"/></svg>No</span><span class="plot-d6a7b5-swatch"><svg xmlns="http://www.w3.org/2000/svg" width="15" height="15" fill="#efb118"><rect width="100%" height="100%"/></svg>Yes</span></div></foreignObject></svg>